<svg version="1.1" xmlns="http://www.w3.org/2000/svg" xmlns:xlink="http://www.w3.org/1999/xlink" xmlns:a="http://ns.adobe.com/AdobeSVGViewerExtensions/3.0/" x="0px" y="0px" width="22px" height="24px" overflow="visible" enable-background="new 0 0 22 24" xml:space="preserve" viewBox="0 0 22 24">
<path fill="#C30015" d="M4.5,0.03c1.394-0.267,2.307,1.329,3.002,2.43C8.179,3.528,9.01,4.784,8.674,6.176
	C8.488,6.958,7.792,7.384,7.268,7.844c-0.519,0.454-1.309,0.873-1.5,1.571c-0.312,1.133,0.372,2.325,0.795,3.003
	c0.963,1.531,2.126,2.91,3.613,4.145c0.719,0.598,1.718,1.396,2.719,1.191c1.495-0.307,1.89-2.181,3.518-2.431
	c1.549-0.237,2.598,0.903,3.473,1.668c0.842,0.739,2.203,1.688,2.11,2.954c-0.054,0.729-0.629,1.182-1.128,1.621
	c-0.506,0.449-0.951,0.953-1.453,1.285c-1.213,0.805-2.701,1.199-4.41,1.144c-1.674-0.052-3.01-0.63-4.22-1.286
	c-2.368-1.283-4.239-3.087-6.002-5.099c-1.734-1.978-3.335-4.319-4.221-6.906C-0.544,7.473,0.04,4.151,1.829,2.081
	c0.302-0.352,0.78-0.719,1.218-1.097C3.483,0.606,3.887,0.147,4.5,0.03z"></path>
</svg>
